<svg xmlns="http://www.w3.org/2000/svg" width="24.315" height="19.291" viewBox="0 0 24.315 19.291">
  <g id="Icon_ionic-ios-list" data-name="Icon ionic-ios-list" transform="translate(-4.4 -7.213)">
    <path id="Path_12364" data-name="Path 12364" d="M8.017,17.79a1.758,1.758,0,1,1-1.758-1.758A1.758,1.758,0,0,1,8.017,17.79Z" transform="translate(0 -0.932)" fill="#fcfcfd" stroke="#fcfcfd" stroke-width="0.2"/>
    <path id="Path_12365" data-name="Path 12365" d="M8.017,9.071A1.758,1.758,0,1,1,6.258,7.313,1.758,1.758,0,0,1,8.017,9.071Z" fill="#fcfcfd" stroke="#fcfcfd" stroke-width="0.2"/>
    <path id="Path_12366" data-name="Path 12366" d="M8.017,26.508A1.758,1.758,0,1,1,6.258,24.75a1.758,1.758,0,0,1,1.758,1.758Z" transform="translate(0 -1.863)" fill="#fcfcfd" stroke="#fcfcfd" stroke-width="0.2"/>
    <path id="Path_12367" data-name="Path 12367" d="M28.448,16.875h-15.1a1,1,0,0,0,0,2.01h15.1a1,1,0,1,0,0-2.01Z" transform="translate(-0.838 -1.022)" fill="#fcfcfd" stroke="#fcfcfd" stroke-width="0.2"/>
    <path id="Path_12368" data-name="Path 12368" d="M28.448,25.594h-15.1a1,1,0,0,0,0,2.01h15.1a1,1,0,1,0,0-2.01Z" transform="translate(-0.838 -1.954)" fill="#fcfcfd" stroke="#fcfcfd" stroke-width="0.2"/>
    <path id="Path_12369" data-name="Path 12369" d="M13.345,10.166h15.1a1,1,0,0,0,0-2.01h-15.1a1,1,0,1,0,0,2.01Z" transform="translate(-0.838 -0.09)" fill="#fcfcfd" stroke="#fcfcfd" stroke-width="0.2"/>
  </g>
</svg>
