<svg xmlns="http://www.w3.org/2000/svg" width="21.991" height="24.309" viewBox="0 0 21.991 24.309">
  <g id="notification_9_" data-name="notification (9)" transform="translate(-17.798 0.15)">
    <g id="Group_5094" data-name="Group 5094" transform="translate(17.95 0)">
      <path id="Path_13049" data-name="Path 13049" d="M39.624,17.937a2.781,2.781,0,0,0-2.78-2.447.3.3,0,0,1-.306-.306V10.622a7.983,7.983,0,0,0-5.154-7.447,2.71,2.71,0,0,0,.054-.531,2.645,2.645,0,1,0-5.29,0,2.832,2.832,0,0,0,.05.515,7.738,7.738,0,0,0-5.15,7.3v4.728a.307.307,0,0,1-.306.306,2.778,2.778,0,0,0-2.78,2.447,2.712,2.712,0,0,0,2.7,2.974h4.67a3.483,3.483,0,0,0,6.924,0h4.67a2.712,2.712,0,0,0,2.7-2.974ZM28.793,1.549a1.1,1.1,0,0,1,1.1,1.1.946.946,0,0,1-.016.147,6.862,6.862,0,0,0-.8-.074,7.979,7.979,0,0,0-1.363.077.947.947,0,0,1-.016-.147,1.1,1.1,0,0,1,1.1-1.1Zm0,20.911a1.943,1.943,0,0,1-1.9-1.549h3.795A1.943,1.943,0,0,1,28.793,22.46Zm8.992-3.477a1.153,1.153,0,0,1-.86.379H20.661a1.153,1.153,0,0,1-.86-.379,1.138,1.138,0,0,1-.294-.9,1.217,1.217,0,0,1,1.239-1.046A1.858,1.858,0,0,0,22.6,15.184V10.455a6.2,6.2,0,0,1,6.192-6.2c.077,0,.151,0,.228,0a6.335,6.335,0,0,1,5.967,6.358v4.562a1.858,1.858,0,0,0,1.855,1.855,1.217,1.217,0,0,1,1.239,1.046A1.159,1.159,0,0,1,37.785,18.982Z" transform="translate(-17.95 0)" fill="#fcfcfd" stroke="#fcfcfd" stroke-width="0.3"/>
    </g>
  </g>
</svg>
