<svg xmlns="http://www.w3.org/2000/svg" width="25.85" height="25.85" viewBox="0 0 25.85 25.85">
  <g id="save-money_4_" data-name="save-money (4)" transform="translate(-104.045 -7.4)">
    <path id="Path_12370" data-name="Path 12370" d="M189.874,160.124a.837.837,0,0,0-.3-.01,2,2,0,0,1-1.771-1.986.881.881,0,0,0-1.762,0,3.769,3.769,0,0,0,2.771,3.629v.881a.881.881,0,0,0,1.762,0v-.828a3.762,3.762,0,0,0-.771-7.444,2,2,0,1,1,2-2,.881.881,0,1,0,1.762,0,3.769,3.769,0,0,0-2.991-3.683v-.8a.881.881,0,0,0-1.762,0v.856a3.762,3.762,0,0,0,.991,7.391,2,2,0,0,1,.073,4Zm0,0" transform="translate(-72.83 -134.989)" fill="#fcfcfd" stroke="#fcfcfd" stroke-width="0.3"/>
    <path id="Path_12371" data-name="Path 12371" d="M104.2,119.267a12.775,12.775,0,1,0,12.775-12.775A12.775,12.775,0,0,0,104.2,119.267Zm12.775-11.013a11.013,11.013,0,1,1-11.013,11.013A11.013,11.013,0,0,1,116.97,108.254Zm0,0" transform="translate(0 -98.942)" fill="#fcfcfd" stroke="#fcfcfd" stroke-width="0.3"/>
  </g>
</svg>
