<svg xmlns="http://www.w3.org/2000/svg" width="25.2" height="19.6" viewBox="0 0 25.2 19.6">
  <g id="transaction" transform="translate(-0.7 -3.2)">
    <path id="Path_12376" data-name="Path 12376" d="M23.912,3.5H2.676A1.676,1.676,0,0,0,1,5.176V19.706a1.676,1.676,0,0,0,1.676,1.676h15.6a.559.559,0,0,0,0-1.118H2.676a.559.559,0,0,1-.559-.559V9.088H24.471V16.4a.559.559,0,0,0,1.118,0V5.176A1.676,1.676,0,0,0,23.912,3.5ZM2.118,7.971V5.176a.559.559,0,0,1,.559-.559H23.912a.559.559,0,0,1,.559.559V7.971Z" fill="#fcfcfd" stroke="#fcfcfd" stroke-width="0.6"/>
    <path id="Path_12377" data-name="Path 12377" d="M3.559,14.5A.559.559,0,0,0,3,15.059v2.235a.559.559,0,0,0,.559.559H5.794a.559.559,0,0,0,.559-.559V15.059a.559.559,0,0,0-.559-.559Zm1.676,2.235H4.118V15.618H5.235Z" transform="translate(0.235 1.294)" fill="#fcfcfd" stroke="#fcfcfd" stroke-width="0.6"/>
    <path id="Path_12378" data-name="Path 12378" d="M23.03,16.618H19.908l.164-.164a.559.559,0,1,0-.791-.79l-1.118,1.118a.559.559,0,0,0,.4.954H23.03a.559.559,0,0,0,0-1.118Z" transform="translate(2 1.412)" fill="#fcfcfd" stroke="#fcfcfd" stroke-width="0.6"/>
    <path id="Path_12379" data-name="Path 12379" d="M23.029,18.5H18.559a.559.559,0,0,0,0,1.118H21.68l-.164.163a.559.559,0,0,0,.791.79l1.118-1.118a.559.559,0,0,0-.4-.953Z" transform="translate(2 1.765)" fill="#fcfcfd" stroke="#fcfcfd" stroke-width="0.6"/>
  </g>
</svg>
