<svg xmlns="http://www.w3.org/2000/svg" width="20.32" height="24.102" viewBox="0 0 20.32 24.102">
  <g id="collection" transform="translate(-40.167)">
    <path id="Path_12382" data-name="Path 12382" d="M115.063,417.733h-9.832a.706.706,0,0,0,0,1.412h9.832A.706.706,0,0,0,115.063,417.733Z" transform="translate(-61.332 -398.069)" fill="#fcfcfd"/>
    <path id="Path_12383" data-name="Path 12383" d="M58.269,0H45.411a2.218,2.218,0,0,0-2.219,2.219v.807h-.807a2.218,2.218,0,0,0-2.219,2.219V21.883A2.218,2.218,0,0,0,42.386,24.1H55.243a2.218,2.218,0,0,0,2.219-2.219v-.807h.807a2.221,2.221,0,0,0,2.219-2.219V2.219A2.218,2.218,0,0,0,58.269,0ZM56.05,21.883a.807.807,0,0,1-.807.807H42.386a.807.807,0,0,1-.807-.807V5.244a.807.807,0,0,1,.807-.807H55.243a.807.807,0,0,1,.807.807Zm3.025-3.025a.807.807,0,0,1-.807.807h-.807V5.244a2.218,2.218,0,0,0-2.219-2.219H44.6V2.219a.807.807,0,0,1,.807-.807H58.269a.807.807,0,0,1,.807.807Z" transform="translate(0)" fill="#fcfcfd"/>
    <path id="Path_12384" data-name="Path 12384" d="M104.786,130.244l4.916,2.838a.706.706,0,0,0,.706,0l4.916-2.838a.706.706,0,0,0,.353-.611v-5.677a.706.706,0,0,0-.353-.611l-4.916-2.838a.706.706,0,0,0-.706,0l-4.916,2.838a.706.706,0,0,0-.353.611v5.677A.706.706,0,0,0,104.786,130.244Zm1.059-5.88,4.21-2.431,4.21,2.431v4.861l-4.21,2.431-4.21-2.431Z" transform="translate(-61.241 -114.743)" fill="#fcfcfd"/>
    <path id="Path_12385" data-name="Path 12385" d="M174.433,191.211l1.765-2.648a.706.706,0,0,0,0-.783l-1.765-2.647a.709.709,0,0,0-1.175,0l-1.765,2.647a.706.706,0,0,0,0,.783l1.765,2.648A.709.709,0,0,0,174.433,191.211Zm-1.5-3.039.916-1.374.916,1.374-.916,1.374Z" transform="translate(-125.031 -176.121)" fill="#fcfcfd"/>
  </g>
</svg>
